# xmcd CD database file
#
# Track frame offsets:
#	150
#	17113
#	22910
#	45206
#	62440
#	76000
#	86142
#	109515
#	125614
#	149107
#	165753
#	172107
#	194216
#	213895
#
# Disc length: 3092 seconds
#
# Revision: 0
# Processed by: cddbd v1.5PL3 Copyright (c) Steve Scherf et al.
# Submitted via: CDex 1.51
#
DISCID=b30c120e
DTITLE=Natsuki Tamura - KO KO KO KE
DYEAR=2004
DGENRE=Jazz
TTITLE0=MEKINAKA
TTITLE1=PENG
TTITLE2=NETTARA MOTTARA
TTITLE3=TAHI TAHI
TTITLE4=SHAMISEN
TTITLE5=KOGENA AGENA
TTITLE6=KO KO KO KE
TTITLE7=HONAMESA
TTITLE8=PASURIJA
TTITLE9=TAIKO
TTITLE10=GUTA
TTITLE11=EPURA
TTITLE12=SYSTE
TTITLE13=SAMIDARE
EXTD=YEAR: 2004
EXTT0=
EXTT1=
EXTT2=
EXTT3=
EXTT4=
EXTT5=
EXTT6=
EXTT7=
EXTT8=
EXTT9=
EXTT10=
EXTT11=
EXTT12=
EXTT13=
PLAYORDER=
